<mxfile host="app.diagrams.net" agent="Mozilla/5.0 (Windows NT 10.0; Win64; x64) AppleWebKit/537.36 (KHTML, like Gecko) Chrome/130.0.0.0 Safari/537.36" version="24.8.6">
  <diagram name="Сторінка-1" id="6Hk7543w7sg_HWbXQ7sq">
    <mxGraphModel dx="2193" dy="1210" grid="0" gridSize="10" guides="1" tooltips="1" connect="1" arrows="1" fold="1" page="0" pageScale="1" pageWidth="827" pageHeight="1169" math="0" shadow="0">
      <root>
        <mxCell id="0" />
        <mxCell id="1" parent="0" />
        <mxCell id="3hhFcom7jPI2XUqBoJTO-3" value="" style="edgeStyle=none;curved=1;rounded=0;orthogonalLoop=1;jettySize=auto;html=1;fontSize=12;startSize=8;endSize=8;" edge="1" parent="1" source="3hhFcom7jPI2XUqBoJTO-1" target="3hhFcom7jPI2XUqBoJTO-2">
          <mxGeometry relative="1" as="geometry" />
        </mxCell>
        <mxCell id="3hhFcom7jPI2XUqBoJTO-1" value="&lt;font style=&quot;font-size: 20px;&quot;&gt;Start&lt;/font&gt;" style="ellipse;whiteSpace=wrap;html=1;" vertex="1" parent="1">
          <mxGeometry x="259" y="46" width="120" height="80" as="geometry" />
        </mxCell>
        <mxCell id="3hhFcom7jPI2XUqBoJTO-40" value="" style="edgeStyle=none;curved=1;rounded=0;orthogonalLoop=1;jettySize=auto;html=1;fontSize=12;startSize=8;endSize=8;" edge="1" parent="1" source="3hhFcom7jPI2XUqBoJTO-2" target="3hhFcom7jPI2XUqBoJTO-39">
          <mxGeometry relative="1" as="geometry" />
        </mxCell>
        <mxCell id="3hhFcom7jPI2XUqBoJTO-2" value="int n, m;" style="whiteSpace=wrap;html=1;" vertex="1" parent="1">
          <mxGeometry x="286.5" y="153" width="65" height="22" as="geometry" />
        </mxCell>
        <mxCell id="3hhFcom7jPI2XUqBoJTO-23" style="edgeStyle=none;curved=1;rounded=0;orthogonalLoop=1;jettySize=auto;html=1;exitX=0.5;exitY=1;exitDx=0;exitDy=0;fontSize=12;startSize=8;endSize=8;" edge="1" parent="1">
          <mxGeometry relative="1" as="geometry">
            <mxPoint x="61.5" y="190" as="sourcePoint" />
            <mxPoint x="61.5" y="190" as="targetPoint" />
          </mxGeometry>
        </mxCell>
        <mxCell id="3hhFcom7jPI2XUqBoJTO-26" value="" style="edgeStyle=none;curved=1;rounded=0;orthogonalLoop=1;jettySize=auto;html=1;fontSize=12;startSize=8;endSize=8;" edge="1" parent="1" source="3hhFcom7jPI2XUqBoJTO-24" target="3hhFcom7jPI2XUqBoJTO-25">
          <mxGeometry relative="1" as="geometry" />
        </mxCell>
        <mxCell id="3hhFcom7jPI2XUqBoJTO-24" value="bool isValidDrinkName(const string&amp;amp; name)" style="ellipse;whiteSpace=wrap;html=1;" vertex="1" parent="1">
          <mxGeometry x="-58" y="37" width="176" height="80" as="geometry" />
        </mxCell>
        <mxCell id="3hhFcom7jPI2XUqBoJTO-28" value="" style="edgeStyle=none;curved=1;rounded=0;orthogonalLoop=1;jettySize=auto;html=1;fontSize=12;startSize=8;endSize=8;" edge="1" parent="1" source="3hhFcom7jPI2XUqBoJTO-25" target="3hhFcom7jPI2XUqBoJTO-27">
          <mxGeometry relative="1" as="geometry" />
        </mxCell>
        <mxCell id="3hhFcom7jPI2XUqBoJTO-29" value="no" style="edgeLabel;html=1;align=center;verticalAlign=middle;resizable=0;points=[];fontSize=12;" vertex="1" connectable="0" parent="3hhFcom7jPI2XUqBoJTO-28">
          <mxGeometry x="-0.3371" relative="1" as="geometry">
            <mxPoint as="offset" />
          </mxGeometry>
        </mxCell>
        <mxCell id="3hhFcom7jPI2XUqBoJTO-31" value="" style="edgeStyle=none;curved=1;rounded=0;orthogonalLoop=1;jettySize=auto;html=1;fontSize=12;startSize=8;endSize=8;" edge="1" parent="1" source="3hhFcom7jPI2XUqBoJTO-25" target="3hhFcom7jPI2XUqBoJTO-30">
          <mxGeometry relative="1" as="geometry" />
        </mxCell>
        <mxCell id="3hhFcom7jPI2XUqBoJTO-35" value="yes" style="edgeLabel;html=1;align=center;verticalAlign=middle;resizable=0;points=[];fontSize=12;" vertex="1" connectable="0" parent="3hhFcom7jPI2XUqBoJTO-31">
          <mxGeometry x="-0.3755" y="1" relative="1" as="geometry">
            <mxPoint as="offset" />
          </mxGeometry>
        </mxCell>
        <mxCell id="3hhFcom7jPI2XUqBoJTO-25" value="name.length() &amp;lt; 1 || name.length() &amp;gt; 7" style="rhombus;whiteSpace=wrap;html=1;" vertex="1" parent="1">
          <mxGeometry x="-61" y="137" width="182" height="80" as="geometry" />
        </mxCell>
        <mxCell id="3hhFcom7jPI2XUqBoJTO-27" value="return false;" style="whiteSpace=wrap;html=1;" vertex="1" parent="1">
          <mxGeometry x="-208" y="160.5" width="78" height="33" as="geometry" />
        </mxCell>
        <mxCell id="3hhFcom7jPI2XUqBoJTO-33" value="" style="edgeStyle=none;curved=1;rounded=0;orthogonalLoop=1;jettySize=auto;html=1;fontSize=12;startSize=8;endSize=8;" edge="1" parent="1" source="3hhFcom7jPI2XUqBoJTO-30" target="3hhFcom7jPI2XUqBoJTO-32">
          <mxGeometry relative="1" as="geometry" />
        </mxCell>
        <mxCell id="3hhFcom7jPI2XUqBoJTO-34" value="no" style="edgeLabel;html=1;align=center;verticalAlign=middle;resizable=0;points=[];fontSize=12;" vertex="1" connectable="0" parent="3hhFcom7jPI2XUqBoJTO-33">
          <mxGeometry x="-0.028" y="1" relative="1" as="geometry">
            <mxPoint as="offset" />
          </mxGeometry>
        </mxCell>
        <mxCell id="3hhFcom7jPI2XUqBoJTO-37" value="" style="edgeStyle=none;curved=1;rounded=0;orthogonalLoop=1;jettySize=auto;html=1;fontSize=12;startSize=8;endSize=8;" edge="1" parent="1" source="3hhFcom7jPI2XUqBoJTO-30" target="3hhFcom7jPI2XUqBoJTO-36">
          <mxGeometry relative="1" as="geometry" />
        </mxCell>
        <mxCell id="3hhFcom7jPI2XUqBoJTO-38" value="yes" style="edgeLabel;html=1;align=center;verticalAlign=middle;resizable=0;points=[];fontSize=12;" vertex="1" connectable="0" parent="3hhFcom7jPI2XUqBoJTO-37">
          <mxGeometry x="-0.3906" relative="1" as="geometry">
            <mxPoint as="offset" />
          </mxGeometry>
        </mxCell>
        <mxCell id="3hhFcom7jPI2XUqBoJTO-30" value="c &amp;lt; &#39;a&#39; || c &amp;gt; &#39;z&#39;" style="rhombus;whiteSpace=wrap;html=1;" vertex="1" parent="1">
          <mxGeometry x="-27" y="246" width="114" height="62" as="geometry" />
        </mxCell>
        <mxCell id="3hhFcom7jPI2XUqBoJTO-32" value="return false;" style="whiteSpace=wrap;html=1;" vertex="1" parent="1">
          <mxGeometry x="-208" y="260.5" width="78" height="33" as="geometry" />
        </mxCell>
        <mxCell id="3hhFcom7jPI2XUqBoJTO-36" value="return true;" style="whiteSpace=wrap;html=1;" vertex="1" parent="1">
          <mxGeometry x="-2" y="357" width="64" height="40" as="geometry" />
        </mxCell>
        <mxCell id="3hhFcom7jPI2XUqBoJTO-42" value="" style="edgeStyle=none;curved=1;rounded=0;orthogonalLoop=1;jettySize=auto;html=1;fontSize=12;startSize=8;endSize=8;" edge="1" parent="1" source="3hhFcom7jPI2XUqBoJTO-39" target="3hhFcom7jPI2XUqBoJTO-41">
          <mxGeometry relative="1" as="geometry" />
        </mxCell>
        <mxCell id="3hhFcom7jPI2XUqBoJTO-39" value="cin &amp;gt;&amp;gt; n &amp;gt;&amp;gt; m;" style="shape=parallelogram;perimeter=parallelogramPerimeter;whiteSpace=wrap;html=1;fixedSize=1;" vertex="1" parent="1">
          <mxGeometry x="259" y="204" width="120" height="26" as="geometry" />
        </mxCell>
        <mxCell id="3hhFcom7jPI2XUqBoJTO-46" value="" style="edgeStyle=none;curved=1;rounded=0;orthogonalLoop=1;jettySize=auto;html=1;fontSize=12;startSize=8;endSize=8;" edge="1" parent="1" source="3hhFcom7jPI2XUqBoJTO-41" target="3hhFcom7jPI2XUqBoJTO-45">
          <mxGeometry relative="1" as="geometry" />
        </mxCell>
        <mxCell id="3hhFcom7jPI2XUqBoJTO-47" value="true" style="edgeLabel;html=1;align=center;verticalAlign=middle;resizable=0;points=[];fontSize=12;" vertex="1" connectable="0" parent="3hhFcom7jPI2XUqBoJTO-46">
          <mxGeometry x="-0.3543" y="-1" relative="1" as="geometry">
            <mxPoint as="offset" />
          </mxGeometry>
        </mxCell>
        <mxCell id="3hhFcom7jPI2XUqBoJTO-51" value="" style="edgeStyle=none;curved=1;rounded=0;orthogonalLoop=1;jettySize=auto;html=1;fontSize=12;startSize=8;endSize=8;" edge="1" parent="1" source="3hhFcom7jPI2XUqBoJTO-41" target="3hhFcom7jPI2XUqBoJTO-50">
          <mxGeometry relative="1" as="geometry" />
        </mxCell>
        <mxCell id="3hhFcom7jPI2XUqBoJTO-41" value="n &amp;lt;= 0 || n &amp;gt;= 777 || m &amp;lt;= 0 || m &amp;gt;= 777" style="rhombus;whiteSpace=wrap;html=1;" vertex="1" parent="1">
          <mxGeometry x="191.5" y="249" width="255" height="80" as="geometry" />
        </mxCell>
        <mxCell id="3hhFcom7jPI2XUqBoJTO-49" value="" style="edgeStyle=none;curved=1;rounded=0;orthogonalLoop=1;jettySize=auto;html=1;fontSize=12;startSize=8;endSize=8;" edge="1" parent="1" source="3hhFcom7jPI2XUqBoJTO-45" target="3hhFcom7jPI2XUqBoJTO-48">
          <mxGeometry relative="1" as="geometry" />
        </mxCell>
        <mxCell id="3hhFcom7jPI2XUqBoJTO-45" value="&lt;div&gt;&amp;nbsp; &amp;nbsp;&amp;nbsp;&lt;/div&gt;&lt;div&gt;cout &amp;lt;&amp;lt; &quot;Error: n and m must be between 0 and 777.&quot; &amp;lt;&amp;lt; endl;&lt;/div&gt;&lt;div&gt;&lt;br&gt;&lt;/div&gt;" style="shape=parallelogram;perimeter=parallelogramPerimeter;whiteSpace=wrap;html=1;fixedSize=1;" vertex="1" parent="1">
          <mxGeometry x="500" y="259" width="210" height="60" as="geometry" />
        </mxCell>
        <mxCell id="3hhFcom7jPI2XUqBoJTO-48" value="return 1;" style="whiteSpace=wrap;html=1;" vertex="1" parent="1">
          <mxGeometry x="777" y="270.5" width="63" height="37" as="geometry" />
        </mxCell>
        <mxCell id="3hhFcom7jPI2XUqBoJTO-53" value="" style="edgeStyle=none;curved=1;rounded=0;orthogonalLoop=1;jettySize=auto;html=1;fontSize=12;startSize=8;endSize=8;" edge="1" parent="1" source="3hhFcom7jPI2XUqBoJTO-50" target="3hhFcom7jPI2XUqBoJTO-52">
          <mxGeometry relative="1" as="geometry" />
        </mxCell>
        <mxCell id="3hhFcom7jPI2XUqBoJTO-50" value="unordered_set&amp;lt;string&amp;gt; drinks;" style="whiteSpace=wrap;html=1;" vertex="1" parent="1">
          <mxGeometry x="259" y="364" width="120" height="60" as="geometry" />
        </mxCell>
        <mxCell id="3hhFcom7jPI2XUqBoJTO-55" value="" style="edgeStyle=none;curved=1;rounded=0;orthogonalLoop=1;jettySize=auto;html=1;fontSize=12;startSize=8;endSize=8;" edge="1" parent="1" source="3hhFcom7jPI2XUqBoJTO-52" target="3hhFcom7jPI2XUqBoJTO-54">
          <mxGeometry relative="1" as="geometry" />
        </mxCell>
        <mxCell id="3hhFcom7jPI2XUqBoJTO-52" value="i = 0;" style="whiteSpace=wrap;html=1;" vertex="1" parent="1">
          <mxGeometry x="283.5" y="450" width="71" height="26" as="geometry" />
        </mxCell>
        <mxCell id="3hhFcom7jPI2XUqBoJTO-57" value="" style="edgeStyle=none;curved=1;rounded=0;orthogonalLoop=1;jettySize=auto;html=1;fontSize=12;startSize=8;endSize=8;" edge="1" parent="1" source="3hhFcom7jPI2XUqBoJTO-54" target="3hhFcom7jPI2XUqBoJTO-56">
          <mxGeometry relative="1" as="geometry" />
        </mxCell>
        <mxCell id="3hhFcom7jPI2XUqBoJTO-66" value="yes" style="edgeLabel;html=1;align=center;verticalAlign=middle;resizable=0;points=[];fontSize=12;" vertex="1" connectable="0" parent="3hhFcom7jPI2XUqBoJTO-57">
          <mxGeometry x="-0.4663" relative="1" as="geometry">
            <mxPoint as="offset" />
          </mxGeometry>
        </mxCell>
        <mxCell id="3hhFcom7jPI2XUqBoJTO-54" value="i &amp;lt; n;" style="rhombus;whiteSpace=wrap;html=1;" vertex="1" parent="1">
          <mxGeometry x="286" y="502" width="66" height="56" as="geometry" />
        </mxCell>
        <mxCell id="3hhFcom7jPI2XUqBoJTO-59" value="" style="edgeStyle=none;curved=1;rounded=0;orthogonalLoop=1;jettySize=auto;html=1;fontSize=12;startSize=8;endSize=8;" edge="1" parent="1" source="3hhFcom7jPI2XUqBoJTO-56" target="3hhFcom7jPI2XUqBoJTO-58">
          <mxGeometry relative="1" as="geometry" />
        </mxCell>
        <mxCell id="3hhFcom7jPI2XUqBoJTO-56" value="string drink;" style="whiteSpace=wrap;html=1;" vertex="1" parent="1">
          <mxGeometry x="281" y="580" width="76" height="23" as="geometry" />
        </mxCell>
        <mxCell id="3hhFcom7jPI2XUqBoJTO-61" value="" style="edgeStyle=none;curved=1;rounded=0;orthogonalLoop=1;jettySize=auto;html=1;fontSize=12;startSize=8;endSize=8;" edge="1" parent="1" source="3hhFcom7jPI2XUqBoJTO-58" target="3hhFcom7jPI2XUqBoJTO-60">
          <mxGeometry relative="1" as="geometry" />
        </mxCell>
        <mxCell id="3hhFcom7jPI2XUqBoJTO-58" value="cin &amp;gt;&amp;gt; drink;" style="shape=parallelogram;perimeter=parallelogramPerimeter;whiteSpace=wrap;html=1;fixedSize=1;" vertex="1" parent="1">
          <mxGeometry x="259" y="625" width="120" height="23" as="geometry" />
        </mxCell>
        <mxCell id="3hhFcom7jPI2XUqBoJTO-63" value="" style="edgeStyle=none;curved=1;rounded=0;orthogonalLoop=1;jettySize=auto;html=1;fontSize=12;startSize=8;endSize=8;" edge="1" parent="1" source="3hhFcom7jPI2XUqBoJTO-60" target="3hhFcom7jPI2XUqBoJTO-62">
          <mxGeometry relative="1" as="geometry" />
        </mxCell>
        <mxCell id="3hhFcom7jPI2XUqBoJTO-65" value="yes" style="edgeLabel;html=1;align=center;verticalAlign=middle;resizable=0;points=[];fontSize=12;" vertex="1" connectable="0" parent="3hhFcom7jPI2XUqBoJTO-63">
          <mxGeometry x="-0.2594" relative="1" as="geometry">
            <mxPoint as="offset" />
          </mxGeometry>
        </mxCell>
        <mxCell id="3hhFcom7jPI2XUqBoJTO-68" value="" style="edgeStyle=none;curved=1;rounded=0;orthogonalLoop=1;jettySize=auto;html=1;fontSize=12;startSize=8;endSize=8;" edge="1" parent="1" source="3hhFcom7jPI2XUqBoJTO-60" target="3hhFcom7jPI2XUqBoJTO-67">
          <mxGeometry relative="1" as="geometry" />
        </mxCell>
        <mxCell id="3hhFcom7jPI2XUqBoJTO-69" value="no" style="edgeLabel;html=1;align=center;verticalAlign=middle;resizable=0;points=[];fontSize=12;" vertex="1" connectable="0" parent="3hhFcom7jPI2XUqBoJTO-68">
          <mxGeometry x="-0.1656" y="-4" relative="1" as="geometry">
            <mxPoint as="offset" />
          </mxGeometry>
        </mxCell>
        <mxCell id="3hhFcom7jPI2XUqBoJTO-60" value="isValidDrinkName(drink)" style="rhombus;whiteSpace=wrap;html=1;" vertex="1" parent="1">
          <mxGeometry x="233" y="668" width="172" height="80" as="geometry" />
        </mxCell>
        <mxCell id="3hhFcom7jPI2XUqBoJTO-73" value="" style="edgeStyle=none;curved=1;rounded=0;orthogonalLoop=1;jettySize=auto;html=1;fontSize=12;startSize=8;endSize=8;" edge="1" parent="1" source="3hhFcom7jPI2XUqBoJTO-62" target="3hhFcom7jPI2XUqBoJTO-72">
          <mxGeometry relative="1" as="geometry" />
        </mxCell>
        <mxCell id="3hhFcom7jPI2XUqBoJTO-62" value="drinks.insert(drink);" style="whiteSpace=wrap;html=1;" vertex="1" parent="1">
          <mxGeometry x="259" y="792" width="120" height="30" as="geometry" />
        </mxCell>
        <mxCell id="3hhFcom7jPI2XUqBoJTO-64" value="" style="endArrow=none;html=1;rounded=0;fontSize=12;startSize=8;endSize=8;curved=1;entryX=0;entryY=0.5;entryDx=0;entryDy=0;" edge="1" parent="1">
          <mxGeometry width="50" height="50" relative="1" as="geometry">
            <mxPoint x="232" y="564" as="sourcePoint" />
            <mxPoint x="319" y="564" as="targetPoint" />
          </mxGeometry>
        </mxCell>
        <mxCell id="3hhFcom7jPI2XUqBoJTO-71" value="" style="edgeStyle=none;curved=1;rounded=0;orthogonalLoop=1;jettySize=auto;html=1;fontSize=12;startSize=8;endSize=8;" edge="1" parent="1" source="3hhFcom7jPI2XUqBoJTO-67" target="3hhFcom7jPI2XUqBoJTO-70">
          <mxGeometry relative="1" as="geometry" />
        </mxCell>
        <mxCell id="3hhFcom7jPI2XUqBoJTO-67" value="cout &amp;lt;&amp;lt; &quot;Error: Invalid drink name.&quot; &amp;lt;&amp;lt; endl;" style="shape=parallelogram;perimeter=parallelogramPerimeter;whiteSpace=wrap;html=1;fixedSize=1;" vertex="1" parent="1">
          <mxGeometry x="455" y="678" width="269" height="60" as="geometry" />
        </mxCell>
        <mxCell id="3hhFcom7jPI2XUqBoJTO-70" value="return 1;" style="whiteSpace=wrap;html=1;" vertex="1" parent="1">
          <mxGeometry x="546.75" y="770" width="85.5" height="19" as="geometry" />
        </mxCell>
        <mxCell id="3hhFcom7jPI2XUqBoJTO-97" value="" style="edgeStyle=none;curved=1;rounded=0;orthogonalLoop=1;jettySize=auto;html=1;fontSize=12;startSize=8;endSize=8;" edge="1" parent="1" source="3hhFcom7jPI2XUqBoJTO-72" target="3hhFcom7jPI2XUqBoJTO-82">
          <mxGeometry relative="1" as="geometry" />
        </mxCell>
        <mxCell id="3hhFcom7jPI2XUqBoJTO-72" value="i++;" style="whiteSpace=wrap;html=1;" vertex="1" parent="1">
          <mxGeometry x="280" y="842" width="78" height="21" as="geometry" />
        </mxCell>
        <mxCell id="3hhFcom7jPI2XUqBoJTO-74" value="" style="endArrow=none;html=1;rounded=0;fontSize=12;startSize=8;endSize=8;curved=1;" edge="1" parent="1">
          <mxGeometry width="50" height="50" relative="1" as="geometry">
            <mxPoint x="233" y="564" as="sourcePoint" />
            <mxPoint x="233" y="852" as="targetPoint" />
          </mxGeometry>
        </mxCell>
        <mxCell id="3hhFcom7jPI2XUqBoJTO-75" value="" style="endArrow=none;html=1;rounded=0;fontSize=12;startSize=8;endSize=8;curved=1;" edge="1" parent="1">
          <mxGeometry width="50" height="50" relative="1" as="geometry">
            <mxPoint x="233" y="852.64" as="sourcePoint" />
            <mxPoint x="280" y="852.3667441860465" as="targetPoint" />
          </mxGeometry>
        </mxCell>
        <mxCell id="3hhFcom7jPI2XUqBoJTO-76" value="" style="edgeStyle=none;curved=1;rounded=0;orthogonalLoop=1;jettySize=auto;html=1;fontSize=12;startSize=8;endSize=8;" edge="1" parent="1" source="3hhFcom7jPI2XUqBoJTO-78" target="3hhFcom7jPI2XUqBoJTO-80">
          <mxGeometry relative="1" as="geometry" />
        </mxCell>
        <mxCell id="3hhFcom7jPI2XUqBoJTO-77" value="yes" style="edgeLabel;html=1;align=center;verticalAlign=middle;resizable=0;points=[];fontSize=12;" vertex="1" connectable="0" parent="3hhFcom7jPI2XUqBoJTO-76">
          <mxGeometry x="-0.4663" relative="1" as="geometry">
            <mxPoint as="offset" />
          </mxGeometry>
        </mxCell>
        <mxCell id="3hhFcom7jPI2XUqBoJTO-78" value="i &amp;lt; n;" style="rhombus;whiteSpace=wrap;html=1;" vertex="1" parent="1">
          <mxGeometry x="286" y="883" width="66" height="56" as="geometry" />
        </mxCell>
        <mxCell id="3hhFcom7jPI2XUqBoJTO-79" value="" style="edgeStyle=none;curved=1;rounded=0;orthogonalLoop=1;jettySize=auto;html=1;fontSize=12;startSize=8;endSize=8;" edge="1" parent="1" source="3hhFcom7jPI2XUqBoJTO-80" target="3hhFcom7jPI2XUqBoJTO-82">
          <mxGeometry relative="1" as="geometry" />
        </mxCell>
        <mxCell id="3hhFcom7jPI2XUqBoJTO-80" value="string drink;" style="whiteSpace=wrap;html=1;" vertex="1" parent="1">
          <mxGeometry x="281" y="961" width="76" height="23" as="geometry" />
        </mxCell>
        <mxCell id="3hhFcom7jPI2XUqBoJTO-81" value="" style="edgeStyle=none;curved=1;rounded=0;orthogonalLoop=1;jettySize=auto;html=1;fontSize=12;startSize=8;endSize=8;" edge="1" parent="1" source="3hhFcom7jPI2XUqBoJTO-82" target="3hhFcom7jPI2XUqBoJTO-87">
          <mxGeometry relative="1" as="geometry" />
        </mxCell>
        <mxCell id="3hhFcom7jPI2XUqBoJTO-82" value="cin &amp;gt;&amp;gt; drink;" style="shape=parallelogram;perimeter=parallelogramPerimeter;whiteSpace=wrap;html=1;fixedSize=1;" vertex="1" parent="1">
          <mxGeometry x="259" y="1006" width="120" height="23" as="geometry" />
        </mxCell>
        <mxCell id="3hhFcom7jPI2XUqBoJTO-83" value="" style="edgeStyle=none;curved=1;rounded=0;orthogonalLoop=1;jettySize=auto;html=1;fontSize=12;startSize=8;endSize=8;" edge="1" parent="1" source="3hhFcom7jPI2XUqBoJTO-87" target="3hhFcom7jPI2XUqBoJTO-89">
          <mxGeometry relative="1" as="geometry" />
        </mxCell>
        <mxCell id="3hhFcom7jPI2XUqBoJTO-84" value="yes" style="edgeLabel;html=1;align=center;verticalAlign=middle;resizable=0;points=[];fontSize=12;" vertex="1" connectable="0" parent="3hhFcom7jPI2XUqBoJTO-83">
          <mxGeometry x="-0.2594" relative="1" as="geometry">
            <mxPoint as="offset" />
          </mxGeometry>
        </mxCell>
        <mxCell id="3hhFcom7jPI2XUqBoJTO-85" value="" style="edgeStyle=none;curved=1;rounded=0;orthogonalLoop=1;jettySize=auto;html=1;fontSize=12;startSize=8;endSize=8;" edge="1" parent="1" source="3hhFcom7jPI2XUqBoJTO-87" target="3hhFcom7jPI2XUqBoJTO-92">
          <mxGeometry relative="1" as="geometry" />
        </mxCell>
        <mxCell id="3hhFcom7jPI2XUqBoJTO-86" value="no" style="edgeLabel;html=1;align=center;verticalAlign=middle;resizable=0;points=[];fontSize=12;" vertex="1" connectable="0" parent="3hhFcom7jPI2XUqBoJTO-85">
          <mxGeometry x="-0.1656" y="-4" relative="1" as="geometry">
            <mxPoint as="offset" />
          </mxGeometry>
        </mxCell>
        <mxCell id="3hhFcom7jPI2XUqBoJTO-87" value="isValidDrinkName(drink)" style="rhombus;whiteSpace=wrap;html=1;" vertex="1" parent="1">
          <mxGeometry x="233" y="1049" width="172" height="80" as="geometry" />
        </mxCell>
        <mxCell id="3hhFcom7jPI2XUqBoJTO-88" value="" style="edgeStyle=none;curved=1;rounded=0;orthogonalLoop=1;jettySize=auto;html=1;fontSize=12;startSize=8;endSize=8;" edge="1" parent="1" source="3hhFcom7jPI2XUqBoJTO-89" target="3hhFcom7jPI2XUqBoJTO-94">
          <mxGeometry relative="1" as="geometry" />
        </mxCell>
        <mxCell id="3hhFcom7jPI2XUqBoJTO-89" value="drinks.insert(drink);" style="whiteSpace=wrap;html=1;" vertex="1" parent="1">
          <mxGeometry x="259" y="1173" width="120" height="30" as="geometry" />
        </mxCell>
        <mxCell id="3hhFcom7jPI2XUqBoJTO-90" value="" style="endArrow=none;html=1;rounded=0;fontSize=12;startSize=8;endSize=8;curved=1;entryX=0;entryY=0.5;entryDx=0;entryDy=0;" edge="1" parent="1">
          <mxGeometry width="50" height="50" relative="1" as="geometry">
            <mxPoint x="232" y="945" as="sourcePoint" />
            <mxPoint x="319" y="945" as="targetPoint" />
          </mxGeometry>
        </mxCell>
        <mxCell id="3hhFcom7jPI2XUqBoJTO-91" value="" style="edgeStyle=none;curved=1;rounded=0;orthogonalLoop=1;jettySize=auto;html=1;fontSize=12;startSize=8;endSize=8;" edge="1" parent="1" source="3hhFcom7jPI2XUqBoJTO-92" target="3hhFcom7jPI2XUqBoJTO-93">
          <mxGeometry relative="1" as="geometry" />
        </mxCell>
        <mxCell id="3hhFcom7jPI2XUqBoJTO-92" value="cout &amp;lt;&amp;lt; &quot;Error: Invalid drink name.&quot; &amp;lt;&amp;lt; endl;" style="shape=parallelogram;perimeter=parallelogramPerimeter;whiteSpace=wrap;html=1;fixedSize=1;" vertex="1" parent="1">
          <mxGeometry x="455" y="1059" width="269" height="60" as="geometry" />
        </mxCell>
        <mxCell id="3hhFcom7jPI2XUqBoJTO-93" value="return 1;" style="whiteSpace=wrap;html=1;" vertex="1" parent="1">
          <mxGeometry x="546.75" y="1151" width="85.5" height="19" as="geometry" />
        </mxCell>
        <mxCell id="3hhFcom7jPI2XUqBoJTO-102" value="" style="edgeStyle=none;curved=1;rounded=0;orthogonalLoop=1;jettySize=auto;html=1;fontSize=12;startSize=8;endSize=8;" edge="1" parent="1" source="3hhFcom7jPI2XUqBoJTO-94" target="3hhFcom7jPI2XUqBoJTO-101">
          <mxGeometry relative="1" as="geometry" />
        </mxCell>
        <mxCell id="3hhFcom7jPI2XUqBoJTO-94" value="i++;" style="whiteSpace=wrap;html=1;" vertex="1" parent="1">
          <mxGeometry x="280" y="1223" width="78" height="21" as="geometry" />
        </mxCell>
        <mxCell id="3hhFcom7jPI2XUqBoJTO-95" value="" style="endArrow=none;html=1;rounded=0;fontSize=12;startSize=8;endSize=8;curved=1;" edge="1" parent="1">
          <mxGeometry width="50" height="50" relative="1" as="geometry">
            <mxPoint x="233" y="945" as="sourcePoint" />
            <mxPoint x="233" y="1233" as="targetPoint" />
          </mxGeometry>
        </mxCell>
        <mxCell id="3hhFcom7jPI2XUqBoJTO-96" value="" style="endArrow=none;html=1;rounded=0;fontSize=12;startSize=8;endSize=8;curved=1;" edge="1" parent="1">
          <mxGeometry width="50" height="50" relative="1" as="geometry">
            <mxPoint x="233" y="1233.6399999999999" as="sourcePoint" />
            <mxPoint x="280" y="1233.3667441860466" as="targetPoint" />
          </mxGeometry>
        </mxCell>
        <mxCell id="3hhFcom7jPI2XUqBoJTO-98" value="" style="endArrow=none;html=1;rounded=0;fontSize=12;startSize=8;endSize=8;curved=1;entryX=0;entryY=0.5;entryDx=0;entryDy=0;" edge="1" parent="1" target="3hhFcom7jPI2XUqBoJTO-78">
          <mxGeometry width="50" height="50" relative="1" as="geometry">
            <mxPoint x="147" y="911" as="sourcePoint" />
            <mxPoint x="310" y="1024" as="targetPoint" />
          </mxGeometry>
        </mxCell>
        <mxCell id="3hhFcom7jPI2XUqBoJTO-99" value="" style="endArrow=none;html=1;rounded=0;fontSize=12;startSize=8;endSize=8;curved=1;entryX=0;entryY=0.5;entryDx=0;entryDy=0;" edge="1" parent="1">
          <mxGeometry width="50" height="50" relative="1" as="geometry">
            <mxPoint x="147.5" y="529.3299999999999" as="sourcePoint" />
            <mxPoint x="286.5" y="529.3299999999999" as="targetPoint" />
          </mxGeometry>
        </mxCell>
        <mxCell id="3hhFcom7jPI2XUqBoJTO-100" value="" style="endArrow=none;html=1;rounded=0;fontSize=12;startSize=8;endSize=8;curved=1;" edge="1" parent="1">
          <mxGeometry width="50" height="50" relative="1" as="geometry">
            <mxPoint x="147" y="1419" as="sourcePoint" />
            <mxPoint x="147" y="529" as="targetPoint" />
          </mxGeometry>
        </mxCell>
        <mxCell id="3hhFcom7jPI2XUqBoJTO-104" value="" style="edgeStyle=none;curved=1;rounded=0;orthogonalLoop=1;jettySize=auto;html=1;fontSize=12;startSize=8;endSize=8;" edge="1" parent="1" source="3hhFcom7jPI2XUqBoJTO-101" target="3hhFcom7jPI2XUqBoJTO-103">
          <mxGeometry relative="1" as="geometry" />
        </mxCell>
        <mxCell id="3hhFcom7jPI2XUqBoJTO-101" value="cout &amp;lt;&amp;lt; drinks.size() &amp;lt;&amp;lt; endl;" style="shape=parallelogram;perimeter=parallelogramPerimeter;whiteSpace=wrap;html=1;fixedSize=1;" vertex="1" parent="1">
          <mxGeometry x="224" y="1280" width="190" height="60" as="geometry" />
        </mxCell>
        <mxCell id="3hhFcom7jPI2XUqBoJTO-103" value="End" style="ellipse;whiteSpace=wrap;html=1;" vertex="1" parent="1">
          <mxGeometry x="279" y="1394" width="80" height="50" as="geometry" />
        </mxCell>
        <mxCell id="3hhFcom7jPI2XUqBoJTO-105" value="" style="endArrow=none;html=1;rounded=0;fontSize=12;startSize=8;endSize=8;curved=1;exitX=0;exitY=0.5;exitDx=0;exitDy=0;" edge="1" parent="1" source="3hhFcom7jPI2XUqBoJTO-103">
          <mxGeometry width="50" height="50" relative="1" as="geometry">
            <mxPoint x="272" y="1372" as="sourcePoint" />
            <mxPoint x="147" y="1419" as="targetPoint" />
          </mxGeometry>
        </mxCell>
      </root>
    </mxGraphModel>
  </diagram>
</mxfile>
